<?xml version="1.0" encoding="utf-8"?>
<!-- Generator: Adobe Illustrator 16.0.0, SVG Export Plug-In . SVG Version: 6.00 Build 0)  -->
<!DOCTYPE svg PUBLIC "-//W3C//DTD SVG 1.1//EN" "http://www.w3.org/Graphics/SVG/1.1/DTD/svg11.dtd">
<svg version="1.1" id="Layer_1" xmlns="http://www.w3.org/2000/svg" xmlns:xlink="http://www.w3.org/1999/xlink" x="0px" y="0px"
	 width="250px" height="28.425px" viewBox="0 0 250 28.425" enable-background="new 0 0 250 28.425" xml:space="preserve">
<g>
	<path d="M1.972,20.554V7.871h10.146l2.537,2.537v7.61l-2.537,2.537H1.972z M4.509,18.017h6.342l1.268-1.268v-4.955l-1.268-1.387
		H4.509V18.017z"/>
	<path d="M29.875,15.481v2.536h10.147v2.537H27.339V7.871h12.684v2.537H29.875v2.537h7.61v2.537H29.875z"/>
	<path d="M52.705,7.871h12.684v2.537H55.241v7.61h10.147v2.537H52.705V7.871z"/>
	<path d="M83.145,15.481h-2.536v5.073h-2.537V7.871h12.685v7.61h-4.479l4.479,5.073h-3.133L83.145,15.481z M80.608,10.407v2.537
		h7.61v-2.537H80.608z"/>
	<path d="M108.512,20.554v-5.073l-5.073-7.61h3.171l3.171,4.439l3.21-4.439h3.132l-5.073,7.61v5.073H108.512z"/>
	<path d="M131.342,20.554h-2.537V7.871h12.684v7.61h-10.146V20.554z M138.951,12.944v-2.537h-7.609v2.537H138.951z"/>
	<path d="M154.172,7.871h12.684v2.537h-5.073v10.147h-2.537V10.407h-5.073V7.871z"/>
	<path d="M197.295,2.797v22.83h-22.83V2.797H197.295z M187.148,20.554v-5.073l5.073-7.61h-3.132l-3.21,4.439l-3.171-4.439h-3.171
		l5.073,7.61v5.073H187.148z"/>
	<path d="M222.662,2.797v22.83h-22.83V2.797H222.662z M204.905,7.871v12.684h12.684V7.871H204.905z M215.052,10.407v7.61h-7.609
		v-7.61H215.052z"/>
	<path d="M248.028,2.797v22.83h-22.83V2.797H248.028z M230.271,7.871v12.684h12.684V7.871h-2.537v10.146h-7.609V7.871H230.271z"/>
</g>
</svg>
